<?xml version="1.0" encoding="UTF-8" standalone="no"?>
<svg
   xmlns:dc="http://purl.org/dc/elements/1.1/"
   xmlns:cc="http://creativecommons.org/ns#"
   xmlns:rdf="http://www.w3.org/1999/02/22-rdf-syntax-ns#"
   xmlns:svg="http://www.w3.org/2000/svg"
   xmlns="http://www.w3.org/2000/svg"
   xmlns:sodipodi="http://sodipodi.sourceforge.net/DTD/sodipodi-0.dtd"
   xmlns:inkscape="http://www.inkscape.org/namespaces/inkscape"
   width="61"
   height="40"
   viewBox="0 0 61 40"
   version="1.1"
   preserveAspectRatio="xMidYMid"
   id="svg14"
   sodipodi:docname="fastify.svg"
   inkscape:version="1.0.2 (e86c8708, 2021-01-15)">
  <metadata
     id="metadata20">
    <rdf:RDF>
      <cc:Work
         rdf:about="">
        <dc:format>image/svg+xml</dc:format>
        <dc:type
           rdf:resource="http://purl.org/dc/dcmitype/StillImage" />
        <dc:title></dc:title>
      </cc:Work>
    </rdf:RDF>
  </metadata>
  <defs
     id="defs18" />
  <sodipodi:namedview
     pagecolor="#ffffff"
     bordercolor="#666666"
     borderopacity="1"
     objecttolerance="10"
     gridtolerance="10"
     guidetolerance="10"
     inkscape:pageopacity="0"
     inkscape:pageshadow="2"
     inkscape:window-width="1255"
     inkscape:window-height="756"
     id="namedview16"
     showgrid="false"
     inkscape:zoom="1.9766094"
     inkscape:cx="110.25941"
     inkscape:cy="77.224885"
     inkscape:window-x="0"
     inkscape:window-y="25"
     inkscape:window-maximized="0"
     inkscape:current-layer="svg14" />
  <g
     id="g12"
     transform="scale(0.23519601)"
     style="fill:#ffffff">
    <path
       d="M 247.94239,23.313675 256,2.4439738 255.64967,1.1510866 175.93275,22.154247 C 184.43244,9.8593073 181.51302,0 181.51302,0 c 0,0 -25.45737,16.257013 -44.70888,15.831612 C 117.55264,15.40621 111.34678,10.268027 81.827246,19.68525 52.307712,29.094132 43.966505,57.979734 35.408426,64.185592 26.850347,70.39145 0,90.602196 0,90.602196 L 0.05838845,90.960868 24.264573,83.253592 c 0,0 -6.639602,6.255906 -20.7445834,25.265518 0,0 -0.241895,-0.22521 -0.6589554,-0.60891 l 0.025024,0.13346 c 0,0 11.3357008,17.32469 22.4628718,14.12166 1.117721,-0.3253 2.377244,-0.85914 3.753543,-1.5598 4.479228,2.49402 10.326415,4.94634 16.78251,5.62197 0,0 -4.370793,-5.07979 -8.015901,-10.86025 0.984263,-0.63393 1.993549,-1.29289 3.019517,-1.96018 l -0.475449,0.33365 9.217035,3.38653 -1.017628,-8.66652 c 0.03336,-0.0167 0.05839,-0.0417 0.09175,-0.0584 l 9.058551,3.32815 -1.126063,-7.88245 c 1.151087,-0.60056 2.293832,-1.16776 3.436578,-1.69326 l 9.442247,-35.717052 39.0452,-26.633476 -3.10293,7.80737 C 97.542081,67.079991 82.678049,71.675996 82.678049,71.675996 l -6.205859,2.352221 c -4.612687,5.45515 -6.556189,6.798084 -8.141018,25.107034 3.720179,-0.934215 7.273533,-1.159427 10.493239,-0.291942 16.682415,4.495911 22.462869,24.598221 17.966961,30.161811 -1.126063,1.39298 -3.803591,3.77022 -7.18178,6.56453 h -6.77306 l -0.09175,5.48851 c -0.233554,0.18351 -0.467108,0.35867 -0.692321,0.54218 h -6.889837 l -0.08341,5.35505 c -0.608908,0.46711 -1.217816,0.91754 -1.801701,1.35962 -6.472777,0.13346 -14.672184,-5.51354 -14.672184,-5.51354 0,5.13819 4.279039,13.04565 4.279039,13.04565 0,0 0.283601,-0.13346 0.75905,-0.36701 -0.41706,0.30862 -0.650614,0.47545 -0.650614,0.47545 0,0 17.324688,11.55257 28.234988,7.27353 9.700818,-3.80359 34.816198,-23.60562 56.494988,-32.98114 l 65.6036,-17.28298 8.64983,-22.412821 -49.99719,13.170771 V 83.595582 L 230.64273,68.139324 239.29256,45.7265 171.9957,63.459907 V 43.324232 Z"
       fill="#000000"
       fill-rule="nonzero"
       id="path10"
       style="fill:#ffffff" />
  </g>
</svg>
